<?xml version="1.0" encoding="UTF-8" standalone="no"?>
<svg
   width="215.58954"
   height="18.431999"
   version="1.1"
   id="svg28"
   xmlns="http://www.w3.org/2000/svg"
   xmlns:svg="http://www.w3.org/2000/svg">
  <defs
     id="defs32" />
  <g
     fill="none"
     fill-rule="evenodd"
     id="g26"
     transform="translate(-0.08045067,0.07658701)">
    <path
       id="path18"
       d="m 118.14258,0 c -1.508,0 -2.8625,0.35721947 -4.0625,1.0742188 -1.2,0.7169992 -2.13478,1.7142825 -2.80078,2.9882812 -0.666,1.2729987 -0.99805,2.7049703 -0.99805,4.2929688 0,1.6099983 0.34983,3.0381572 1.04883,4.2851562 0.699,1.245999 1.66081,2.202141 2.88281,2.869141 1.222,0.666999 2.59791,1.001953 4.12891,1.001953 2.04699,0 3.7159,-0.674533 5.0039,-2.019531 h 0.0645 v 1.753906 c 0,1.169999 -0.42911,2.14011 -1.28711,2.912109 -0.86,0.771999 -2.07077,1.158203 -3.63477,1.158203 -1.068,0 -2.00445,-0.131484 -2.81445,-0.396484 -0.809,-0.265 -1.74378,-0.678235 -2.80078,-1.240234 l -0.89063,3.339843 c 0.925,0.552 1.9651,0.977391 3.1211,1.275391 1.15599,0.298 2.35561,0.445312 3.5996,0.445312 1.2,0 2.27471,-0.139875 3.22071,-0.421875 0.947,-0.280999 1.74272,-0.671828 2.38672,-1.173828 a 6.385,6.385 0 0 0 1.60156,-1.84375 8.14,8.14 0 0 0 0.91601,-2.382812 c 0.188,-0.859999 0.28126,-1.804079 0.28126,-2.830078 V 0.265625 h -3.78126 v 1.7363281 h -0.0664 A 7.059,7.059 0 0 0 120.9082,0.51171875 7.62,7.62 0 0 0 118.14258,0 Z M 34.183594,0.01757813 c -0.968999,0 -1.901829,0.21634418 -2.798828,0.65234375 A 6.976,6.976 0 0 0 29.03125,2.5488281 H 28.98242 V 0.265625 H 25.199217 V 16.792969 H 28.98242 V 8.5527344 c 0,-1.5769984 0.372235,-2.8204697 1.115234,-3.7304688 0.743,-0.9099991 1.691658,-1.3652344 2.847656,-1.3652344 2.189998,0 3.28711,1.5784251 3.28711,4.7324219 v 8.6191409 h 3.78125 V 8.5527344 c 0,-1.5769984 0.365657,-2.8204697 1.097656,-3.7304688 0.732999,-0.9099991 1.650001,-1.3652344 2.75,-1.3652344 2.157998,0 3.238281,1.5784251 3.238281,4.7324219 v 8.6191409 h 3.78125 V 7.2285156 c 0,-2.4149976 -0.498954,-4.2190168 -1.501953,-5.4160156 -1.001999,-1.1969988 -2.433923,-1.79492187 -4.294922,-1.79492187 -1.221998,0 -2.339563,0.23412546 -3.351562,0.70312499 A 6.833,6.833 0 0 0 39.171875,2.7636719 h -0.06641 C 38.12547,0.93267371 36.485591,0.01757813 34.183594,0.01757813 Z m 26.898437,0 a 7.76,7.76 0 0 0 -5.68164,2.41406247 c -0.705,0.7499993 -1.25997,1.6604698 -1.667969,2.7304688 a 9.589,9.589 0 0 0 -0.611328,3.4394531 c 0,1.2579987 0.204328,2.4156105 0.611328,3.4746095 0.407999,1.058999 0.962969,1.953641 1.667969,2.68164 a 7.348,7.348 0 0 0 2.535156,1.695313 8.325,8.325 0 0 0 3.179687,0.603516 c 2.245998,0 3.996955,-0.827424 5.251954,-2.482422 h 0.05078 v 2.21875 h 3.615234 V 0.265625 h -3.78125 V 2.25 h -0.06641 C 64.930548,0.76100149 63.230029,0.01757813 61.082031,0.01757813 Z m 21.679688,0 A 7.373,7.373 0 0 0 79.705078,0.66210938 6.958,6.958 0 0 0 77.228516,2.53125 h -0.04883 V 0.26367188 H 73.396484 V 16.791016 h 3.783204 V 8.4863281 c 0,-1.5879984 0.388063,-2.822079 1.164062,-3.7050781 0.776999,-0.8819991 1.812329,-1.3242188 3.111328,-1.3242188 0.595,0 1.105297,0.078422 1.529297,0.2324219 0.424,0.1549999 0.796235,0.4049535 1.115234,0.7519531 0.32,0.3479997 0.554985,0.8200163 0.708985,1.4160157 0.154,0.5949994 0.230468,1.3216415 0.230468,2.1816406 v 8.7695315 h 3.783204 V 7.0644531 c 0,-2.3929976 -0.535376,-4.1673136 -1.609375,-5.3203125 C 86.140892,0.59214178 84.654717,0.01757813 82.761719,0.01757813 Z m 16.246093,0 A 7.76,7.76 0 0 0 93.324219,2.4316406 c -0.704,0.7499993 -1.259969,1.6604698 -1.667969,2.7304688 a 9.589,9.589 0 0 0 -0.609375,3.4394531 c 0,1.2579987 0.202375,2.4156105 0.609375,3.4746095 0.408,1.058999 0.963969,1.953641 1.667969,2.68164 a 7.348,7.348 0 0 0 2.537109,1.695313 8.325,8.325 0 0 0 3.177734,0.603516 c 2.245998,0 3.997908,-0.827424 5.253908,-2.482422 h 0.0488 v 2.21875 H 107.957 V 0.265625 h -3.78125 V 2.25 h -0.0664 c -1.255,-1.48899851 -2.95457,-2.23242187 -5.101568,-2.23242187 z m 38.517578,0 a 8.191,8.191 0 0 0 -3.1875,0.61914062 c -0.99,0.41399955 -1.84455,0.98951635 -2.56055,1.72851565 -0.715,0.7389992 -1.27659,1.6392667 -1.68359,2.6972656 -0.407,1.0599989 -0.61133,2.2110325 -0.61133,3.4570312 0,1.6879988 0.37042,3.1851888 1.10742,4.4921878 0.738,1.306998 1.74449,2.308907 3.02149,3.003906 1.277,0.694999 2.71455,1.041016 4.31055,1.041016 1.54199,0 2.89831,-0.280751 4.07031,-0.84375 1.173,-0.562 2.13381,-1.323204 2.88281,-2.283203 l -2.64258,-2.265626 c -1.035,1.300999 -2.40628,1.951172 -4.11328,1.951172 -1.21,0 -2.23708,-0.336766 -3.08008,-1.009765 -0.842,-0.672 -1.38395,-1.59272 -1.62695,-2.761719 h 12.02539 c 0.066,-0.3969996 0.0977,-0.89986 0.0977,-1.5058594 0,-1.5989984 -0.32461,-3.0271575 -0.97461,-4.2851562 a 7.198,7.198 0 0 0 -2.80664,-2.9609375 c -1.222,-0.71699931 -2.63252,-1.07421877 -4.22852,-1.07421877 z M 26.048828,2.9394531 c 0.217269,0.00374 0.46625,0.1677727 0.640625,0.5429688 0.489162,1.0525083 0.981207,2.1012991 1.513672,3.1328125 0.239083,0.4287739 0.12294,0.231969 0.34375,0.5917968 0.577056,0.9403602 -0.37692,1.5241072 -0.951172,0.5820313 C 27.346177,7.3797089 27.475842,7.6000371 27.212891,7.1269531 26.681008,6.0959788 26.185979,5.0469828 25.699219,3.9941406 25.409843,3.3682346 25.686713,2.9332238 26.048828,2.9394531 Z m 35.677734,0.5175781 c 1.342999,0 2.456751,0.4934698 3.34375,1.4804688 0.886,0.987999 1.330079,2.2156421 1.330079,3.6816406 0,1.4669984 -0.455283,2.6676104 -1.363282,3.5996094 -0.908999,0.931999 -2.016173,1.396484 -3.326171,1.396484 -1.398999,0 -2.538923,-0.464485 -3.419922,-1.396484 -0.879999,-0.931999 -1.320313,-2.132611 -1.320313,-3.5996094 0,-1.5549984 0.453329,-2.8050478 1.361328,-3.7480468 0.908999,-0.9429991 2.040533,-1.4140625 3.394531,-1.4140626 z m 37.923829,0 c 1.342999,0 2.457749,0.4934698 3.343749,1.4804688 0.886,0.987999 1.33008,2.2156421 1.33008,3.6816406 0,1.4669984 -0.45333,2.6676104 -1.36133,3.5996094 -0.908,0.931999 -2.01813,1.396484 -3.328124,1.396484 -1.397999,0 -2.53797,-0.464485 -3.417969,-1.396484 -0.880999,-0.931999 -1.322266,-2.132611 -1.322266,-3.5996094 0,-1.5549984 0.455282,-2.8050478 1.363281,-3.7480468 0.908,-0.9429991 2.03858,-1.4140625 3.392579,-1.4140626 z m 38.074219,0 c 1.057,0 1.92919,0.2995319 2.61719,0.8945313 0.688,0.5959994 1.15253,1.4056417 1.39453,2.4316406 h -8.25586 c 0.264,-1.0589989 0.77616,-1.8780318 1.53515,-2.4570312 0.76,-0.5789994 1.66299,-0.8691407 2.70899,-0.8691407 z m -18.88867,0.033203 c 1.332,0 2.44212,0.4365946 3.32812,1.3085937 0.886,0.8709992 1.33008,2.0016264 1.33008,3.390625 0,1.4009986 -0.43288,2.5548451 -1.29687,3.4648441 -0.864,0.909999 -1.98533,1.365234 -3.36133,1.365234 v 0.002 c -1.365,0 -2.49096,-0.434782 -3.37696,-1.300781 -0.88699,-0.864999 -1.33007,-2.0264234 -1.33007,-3.482422 0,-1.3999985 0.43468,-2.540829 1.30468,-3.4238281 0.87,-0.8819991 2.00435,-1.3242187 3.40235,-1.3242187 z" />
    <text
       xml:space="preserve"
       style="font-size:24px;line-height:0;letter-spacing:-1px;word-spacing:0px;display:inline;fill:#e0fefc;fill-opacity:1"
       x="118.82617"
       y="18.019413"
       id="text454"><tspan
         id="tspan452"
         x="118.32617"
         y="18.019413"
         style="font-style:normal;font-variant:normal;font-weight:bold;font-stretch:normal;font-size:24px;font-family:'Noto Sans CJK TC';-inkscape-font-specification:'Noto Sans CJK TC';text-align:center;text-anchor:middle;fill:#ffffff"
         dx="0"
         dy="0"
         rotate="0 0 0 0 0 0 0 0 0 0 0 0 0 0 0">HART SOLUTIONS</tspan></text>
    <g
       fill="#66FCF1"
       id="g24">
      <path
         d="m 3.3685553,11.594728 c 1.8151849,0 3.2869245,1.431729 3.2869245,3.198161 0,1.765314 -1.4717396,3.198162 -3.2869245,3.198162 -1.816365,0 -3.28810463,-1.432848 -3.28810463,-3.198162 0,-1.766432 1.47173963,-3.198161 3.28810463,-3.198161 z m 0,-11.51427733 c 1.8151849,0 3.2857443,1.43284803 3.2857443,3.19816153 0,1.7664329 -1.4717397,3.1981615 -3.2869245,3.1981615 -1.8151848,0 -3.28692443,-1.4317286 -3.28692443,-3.1981615 0,-1.7653135 1.47173963,-3.19816153 3.28810463,-3.19816153 z m 11.8352887,0 c 1.816365,0 3.288105,1.43284803 3.288105,3.19816153 0,1.7664329 -1.47174,3.1981615 -3.288105,3.1981615 -1.815185,0 -3.286924,-1.4317286 -3.286924,-3.1981615 0,-1.7653135 1.471739,-3.19816153 3.286924,-3.19816153 z"
         id="path20"
         style="stroke-width:1.14941" />
      <ellipse
         cx="15.203845"
         cy="14.920504"
         opacity="0.5"
         rx="3.2881048"
         ry="3.1981618"
         id="ellipse22"
         style="stroke-width:1.14941" />
    </g>
  </g>
</svg>
